<svg width="53" height="53" viewBox="0 0 53 53" fill="none" xmlns="http://www.w3.org/2000/svg">
<rect x="0.5" y="0.5" width="52" height="52" rx="10.5" fill="#FF41F2" fill-opacity="0.26"/>
<rect x="0.5" y="0.5" width="52" height="52" rx="10.5" stroke="#FF41F2"/>
<path d="M20.125 18.5312C20.125 19.7993 19.6213 21.0154 18.7246 21.9121C17.8279 22.8088 16.6118 23.3125 15.3438 23.3125C14.0757 23.3125 12.8596 22.8088 11.9629 21.9121C11.0662 21.0154 10.5625 19.7993 10.5625 18.5312C10.5625 15.8899 12.7024 13.75 15.3438 13.75C17.9851 13.75 20.125 15.8899 20.125 18.5312ZM5.25 31.1038C5.25 27.3362 11.9756 25.4375 15.3438 25.4375C18.7119 25.4375 25.4375 27.3362 25.4375 31.1038V39.25H5.25V31.1038ZM42.4375 18.5312C42.4375 19.7993 41.9338 21.0154 41.0371 21.9121C40.1404 22.8088 38.9243 23.3125 37.6562 23.3125C36.3882 23.3125 35.1721 22.8088 34.2754 21.9121C33.3787 21.0154 32.875 19.7993 32.875 18.5312C32.875 15.8899 35.0149 13.75 37.6562 13.75C40.2976 13.75 42.4375 15.8899 42.4375 18.5312ZM29.6875 16.9375C29.6875 17.7829 29.3517 18.5936 28.7539 19.1914C28.1561 19.7892 27.3454 20.125 26.5 20.125C25.6546 20.125 24.8439 19.7892 24.2461 19.1914C23.6483 18.5936 23.3125 17.7829 23.3125 16.9375C23.3125 16.0921 23.6483 15.2814 24.2461 14.6836C24.8439 14.0858 25.6546 13.75 26.5 13.75C27.3454 13.75 28.1561 14.0858 28.7539 14.6836C29.3517 15.2814 29.6875 16.0921 29.6875 16.9375ZM27.5625 31.1038C27.5625 27.3362 34.2881 25.4375 37.6562 25.4375C41.0244 25.4375 47.75 27.3362 47.75 31.1038V39.25H27.5625V31.1038Z" fill="#FF41F2"/>
<path fill-rule="evenodd" clip-rule="evenodd" d="M31.5469 24.5716C31.2635 24.6757 30.9845 24.7865 30.7096 24.9041C29.4665 25.4354 28.2096 26.1536 27.2331 27.1141C26.9717 27.3723 26.7231 27.6539 26.5 27.9609C26.2789 27.6593 26.0338 27.3761 25.7669 27.1141C24.7904 26.1536 23.5346 25.4354 22.2893 24.9041C22.013 24.7863 21.7339 24.6754 21.4521 24.5716C23.0702 23.7332 25.1506 23.3125 26.5 23.3125C27.8494 23.3125 29.9297 23.7332 31.5469 24.5716Z" fill="#FF41F2"/>
</svg>
